<svg width="1452" height="2580" viewBox="0 0 1452 2580" fill="none" xmlns="http://www.w3.org/2000/svg">
<rect x="20" y="20" width="1411.23" height="2539.56" fill="#F0EDED" stroke="#4FAAFF" stroke-width="40"/>
<path d="M416.355 1095.7H366.284C365.929 1091.56 364.982 1087.8 363.443 1084.42C361.964 1081.05 359.892 1078.15 357.229 1075.72C354.625 1073.24 351.458 1071.34 347.73 1070.04C344.001 1068.68 339.769 1068 335.034 1068C326.748 1068 319.735 1070.01 313.994 1074.04C308.312 1078.06 303.992 1083.83 301.032 1091.35C298.132 1098.87 296.682 1107.89 296.682 1118.43C296.682 1129.55 298.162 1138.87 301.121 1146.39C304.14 1153.85 308.49 1159.47 314.171 1163.26C319.853 1166.99 326.689 1168.85 334.679 1168.85C339.237 1168.85 343.32 1168.29 346.931 1167.17C350.541 1165.98 353.678 1164.29 356.341 1162.1C359.005 1159.92 361.165 1157.28 362.822 1154.2C364.538 1151.07 365.693 1147.55 366.284 1143.64L416.355 1143.99C415.764 1151.69 413.603 1159.53 409.875 1167.52C406.146 1175.45 400.849 1182.79 393.983 1189.54C387.177 1196.23 378.743 1201.61 368.681 1205.7C358.62 1209.78 346.931 1211.82 333.614 1211.82C316.924 1211.82 301.95 1208.24 288.692 1201.08C275.494 1193.92 265.047 1183.38 257.353 1169.47C249.718 1155.56 245.901 1138.55 245.901 1118.43C245.901 1098.18 249.807 1081.14 257.62 1067.29C265.432 1053.38 275.967 1042.88 289.225 1035.77C302.482 1028.61 317.279 1025.03 333.614 1025.03C345.096 1025.03 355.661 1026.6 365.308 1029.74C374.955 1032.87 383.419 1037.46 390.698 1043.5C397.978 1049.47 403.838 1056.84 408.277 1065.6C412.716 1074.36 415.408 1084.39 416.355 1095.7ZM505.156 1211.82C490.36 1211.82 477.694 1208.89 467.159 1203.03C456.624 1197.11 448.545 1188.89 442.922 1178.35C437.3 1167.76 434.488 1155.48 434.488 1141.51C434.488 1127.54 437.3 1115.29 442.922 1104.75C448.545 1094.16 456.624 1085.93 467.159 1080.07C477.694 1074.16 490.36 1071.2 505.156 1071.2C519.952 1071.2 532.618 1074.16 543.153 1080.07C553.688 1085.93 561.767 1094.16 567.39 1104.75C573.012 1115.29 575.824 1127.54 575.824 1141.51C575.824 1155.48 573.012 1167.76 567.39 1178.35C561.767 1188.89 553.688 1197.11 543.153 1203.03C532.618 1208.89 519.952 1211.82 505.156 1211.82ZM505.511 1175.6C509.654 1175.6 513.235 1174.21 516.253 1171.43C519.272 1168.64 521.61 1164.68 523.267 1159.53C524.924 1154.38 525.753 1148.26 525.753 1141.15C525.753 1133.99 524.924 1127.87 523.267 1122.78C521.61 1117.63 519.272 1113.66 516.253 1110.88C513.235 1108.1 509.654 1106.71 505.511 1106.71C501.131 1106.71 497.373 1108.1 494.236 1110.88C491.099 1113.66 488.702 1117.63 487.045 1122.78C485.388 1127.87 484.559 1133.99 484.559 1141.15C484.559 1148.26 485.388 1154.38 487.045 1159.53C488.702 1164.68 491.099 1168.64 494.236 1171.43C497.373 1174.21 501.131 1175.6 505.511 1175.6ZM595.71 1209.34V1072.97H642.23V1098.89H643.65C646.491 1090.37 651.344 1083.62 658.21 1078.65C665.076 1073.68 673.243 1071.2 682.713 1071.2C692.301 1071.2 700.557 1073.74 707.482 1078.83C714.407 1083.86 718.579 1090.55 720 1098.89H721.42C723.728 1090.55 728.641 1083.86 736.157 1078.83C743.674 1073.74 752.493 1071.2 762.613 1071.2C775.693 1071.2 786.288 1075.4 794.396 1083.8C802.564 1092.21 806.647 1103.39 806.647 1117.36V1209.34H757.642V1129.79C757.642 1123.81 756.133 1119.14 753.114 1115.76C750.096 1112.33 746.041 1110.61 740.951 1110.61C735.921 1110.61 731.926 1112.33 728.966 1115.76C726.066 1119.14 724.616 1123.81 724.616 1129.79V1209.34H677.741V1129.79C677.741 1123.81 676.232 1119.14 673.214 1115.76C670.195 1112.33 666.141 1110.61 661.051 1110.61C657.677 1110.61 654.777 1111.38 652.351 1112.92C649.924 1114.46 648.03 1116.68 646.669 1119.58C645.367 1122.42 644.716 1125.82 644.716 1129.79V1209.34H595.71ZM830.817 1209.34V1072.97H879.823V1209.34H830.817ZM855.32 1058.77C848.691 1058.77 843.01 1056.58 838.275 1052.2C833.54 1047.82 831.173 1042.55 831.173 1036.39C831.173 1030.24 833.54 1024.97 838.275 1020.59C843.01 1016.21 848.691 1014.02 855.32 1014.02C862.008 1014.02 867.69 1016.21 872.366 1020.59C877.101 1024.97 879.468 1030.24 879.468 1036.39C879.468 1042.55 877.101 1047.82 872.366 1052.2C867.69 1056.58 862.008 1058.77 855.32 1058.77ZM953.798 1132.63V1209.34H904.792V1072.97H951.312V1098.89H952.732C955.692 1090.25 960.9 1083.48 968.357 1078.56C975.874 1073.65 984.633 1071.2 994.636 1071.2C1004.28 1071.2 1012.66 1073.42 1019.76 1077.85C1026.92 1082.23 1032.46 1088.27 1036.36 1095.96C1040.33 1103.66 1042.28 1112.45 1042.22 1122.33V1209.34H993.215V1132.63C993.275 1125.88 991.558 1120.59 988.066 1116.74C984.633 1112.89 979.839 1110.97 973.684 1110.97C969.659 1110.97 966.138 1111.86 963.119 1113.63C960.16 1115.35 957.882 1117.83 956.283 1121.09C954.685 1124.29 953.857 1128.13 953.798 1132.63ZM1132.11 1263.31C1118.44 1263.31 1106.72 1261.36 1096.95 1257.45C1087.25 1253.61 1079.7 1248.28 1074.31 1241.47C1068.99 1234.73 1066 1226.97 1065.35 1218.21H1112.58C1113.05 1221.11 1114.24 1223.45 1116.13 1225.23C1118.02 1227 1120.45 1228.27 1123.41 1229.04C1126.43 1229.87 1129.8 1230.29 1133.53 1230.29C1139.86 1230.29 1145.1 1228.75 1149.24 1225.67C1153.45 1222.59 1155.55 1217.03 1155.55 1208.98V1185.9H1154.13C1152.35 1190.51 1149.63 1194.45 1145.96 1197.71C1142.29 1200.9 1137.88 1203.36 1132.73 1205.07C1127.58 1206.73 1121.93 1207.56 1115.77 1207.56C1106.07 1207.56 1097.13 1205.31 1088.96 1200.81C1080.85 1196.31 1074.34 1189.18 1069.43 1179.42C1064.58 1169.65 1062.15 1156.9 1062.15 1141.15C1062.15 1124.7 1064.7 1111.32 1069.79 1101.03C1074.94 1090.73 1081.56 1083.18 1089.67 1078.39C1097.84 1073.59 1106.42 1071.2 1115.42 1071.2C1122.17 1071.2 1128.08 1072.38 1133.17 1074.75C1138.26 1077.06 1142.53 1080.16 1145.96 1084.07C1149.39 1087.92 1152 1092.15 1153.77 1096.76H1154.84V1072.97H1203.84V1208.98C1203.84 1220.52 1200.85 1230.32 1194.88 1238.37C1188.96 1246.47 1180.61 1252.66 1169.84 1256.92C1159.07 1261.18 1146.49 1263.31 1132.11 1263.31ZM1133.88 1172.76C1138.38 1172.76 1142.23 1171.52 1145.43 1169.03C1148.68 1166.48 1151.17 1162.87 1152.88 1158.2C1154.66 1153.46 1155.55 1147.78 1155.55 1141.15C1155.55 1134.41 1154.66 1128.64 1152.88 1123.84C1151.17 1118.99 1148.68 1115.29 1145.43 1112.74C1142.23 1110.14 1138.38 1108.84 1133.88 1108.84C1129.39 1108.84 1125.54 1110.14 1122.34 1112.74C1119.21 1115.29 1116.78 1118.99 1115.06 1123.84C1113.41 1128.64 1112.58 1134.41 1112.58 1141.15C1112.58 1147.9 1113.41 1153.64 1115.06 1158.38C1116.78 1163.05 1119.21 1166.63 1122.34 1169.12C1125.54 1171.55 1129.39 1172.76 1133.88 1172.76Z" fill="url(#paint0_linear_1_5)"/>
<path d="M515.033 1377.76C514.559 1371.84 512.34 1367.22 508.374 1363.91C504.468 1360.6 498.52 1358.94 490.53 1358.94C485.44 1358.94 481.267 1359.56 478.012 1360.8C474.816 1361.99 472.449 1363.61 470.91 1365.69C469.371 1367.76 468.572 1370.13 468.513 1372.79C468.394 1374.98 468.779 1376.96 469.667 1378.74C470.614 1380.45 472.093 1382.02 474.106 1383.44C476.118 1384.8 478.693 1386.05 481.829 1387.17C484.966 1388.3 488.695 1389.3 493.016 1390.19L507.93 1393.39C517.992 1395.52 526.603 1398.33 533.765 1401.82C540.926 1405.31 546.786 1409.42 551.343 1414.16C555.9 1418.83 559.244 1424.1 561.375 1429.96C563.565 1435.82 564.689 1442.21 564.749 1449.14C564.689 1461.09 561.7 1471.21 555.782 1479.5C549.863 1487.79 541.4 1494.09 530.391 1498.41C519.442 1502.73 506.273 1504.89 490.885 1504.89C475.082 1504.89 461.292 1502.55 449.514 1497.88C437.795 1493.2 428.681 1486.01 422.17 1476.3C415.719 1466.54 412.464 1454.05 412.405 1438.84H459.28C459.576 1444.4 460.967 1449.08 463.452 1452.87C465.938 1456.65 469.43 1459.52 473.928 1461.48C478.486 1463.43 483.901 1464.41 490.175 1464.41C495.442 1464.41 499.852 1463.76 503.403 1462.45C506.954 1461.15 509.647 1459.35 511.481 1457.04C513.316 1454.73 514.263 1452.1 514.322 1449.14C514.263 1446.36 513.346 1443.93 511.57 1441.86C509.854 1439.73 507.013 1437.83 503.048 1436.18C499.082 1434.46 493.726 1432.86 486.979 1431.38L468.868 1427.48C452.769 1423.98 440.074 1418.15 430.782 1409.99C421.549 1401.76 416.962 1390.54 417.021 1376.34C416.962 1364.8 420.04 1354.71 426.254 1346.07C432.528 1337.37 441.199 1330.59 452.266 1325.74C463.393 1320.88 476.148 1318.46 490.53 1318.46C505.208 1318.46 517.903 1320.91 528.616 1325.82C539.328 1330.74 547.585 1337.66 553.385 1346.6C559.244 1355.48 562.204 1365.86 562.263 1377.76H515.033ZM649.931 1505.25C635.135 1505.25 622.469 1502.32 611.934 1496.46C601.399 1490.54 593.32 1482.31 587.698 1471.78C582.075 1461.18 579.264 1448.9 579.264 1434.93C579.264 1420.97 582.075 1408.71 587.698 1398.18C593.32 1387.58 601.399 1379.36 611.934 1373.5C622.469 1367.58 635.135 1364.62 649.931 1364.62C664.728 1364.62 677.394 1367.58 687.929 1373.5C698.464 1379.36 706.542 1387.58 712.165 1398.18C717.788 1408.71 720.599 1420.97 720.599 1434.93C720.599 1448.9 717.788 1461.18 712.165 1471.78C706.542 1482.31 698.464 1490.54 687.929 1496.46C677.394 1502.32 664.728 1505.25 649.931 1505.25ZM650.287 1469.02C654.43 1469.02 658.01 1467.63 661.029 1464.85C664.047 1462.07 666.385 1458.1 668.042 1452.96C669.699 1447.81 670.528 1441.68 670.528 1434.58C670.528 1427.42 669.699 1421.29 668.042 1416.2C666.385 1411.05 664.047 1407.09 661.029 1404.3C658.01 1401.52 654.43 1400.13 650.287 1400.13C645.907 1400.13 642.149 1401.52 639.012 1404.3C635.875 1407.09 633.478 1411.05 631.821 1416.2C630.163 1421.29 629.335 1427.42 629.335 1434.58C629.335 1441.68 630.163 1447.81 631.821 1452.96C633.478 1458.1 635.875 1462.07 639.012 1464.85C642.149 1467.63 645.907 1469.02 650.287 1469.02ZM806.181 1505.25C791.385 1505.25 778.719 1502.32 768.184 1496.46C757.649 1490.54 749.57 1482.31 743.948 1471.78C738.325 1461.18 735.514 1448.9 735.514 1434.93C735.514 1420.97 738.325 1408.71 743.948 1398.18C749.57 1387.58 757.649 1379.36 768.184 1373.5C778.719 1367.58 791.385 1364.62 806.181 1364.62C820.978 1364.62 833.644 1367.58 844.179 1373.5C854.714 1379.36 862.792 1387.58 868.415 1398.18C874.038 1408.71 876.849 1420.97 876.849 1434.93C876.849 1448.9 874.038 1461.18 868.415 1471.78C862.792 1482.31 854.714 1490.54 844.179 1496.46C833.644 1502.32 820.978 1505.25 806.181 1505.25ZM806.537 1469.02C810.68 1469.02 814.26 1467.63 817.279 1464.85C820.297 1462.07 822.635 1458.1 824.292 1452.96C825.949 1447.81 826.778 1441.68 826.778 1434.58C826.778 1427.42 825.949 1421.29 824.292 1416.2C822.635 1411.05 820.297 1407.09 817.279 1404.3C814.26 1401.52 810.68 1400.13 806.537 1400.13C802.157 1400.13 798.399 1401.52 795.262 1404.3C792.125 1407.09 789.728 1411.05 788.071 1416.2C786.413 1421.29 785.585 1427.42 785.585 1434.58C785.585 1441.68 786.413 1447.81 788.071 1452.96C789.728 1458.1 792.125 1462.07 795.262 1464.85C798.399 1467.63 802.157 1469.02 806.537 1469.02ZM945.741 1426.06V1502.76H896.735V1366.4H943.255V1392.32H944.676C947.635 1383.68 952.843 1376.9 960.301 1371.99C967.817 1367.08 976.577 1364.62 986.579 1364.62C996.226 1364.62 1004.6 1366.84 1011.7 1371.28C1018.86 1375.66 1024.4 1381.7 1028.3 1389.39C1032.27 1397.08 1034.22 1405.87 1034.16 1415.76V1502.76H985.159V1426.06C985.218 1419.31 983.501 1414.01 980.01 1410.16C976.577 1406.32 971.783 1404.39 965.627 1404.39C961.603 1404.39 958.081 1405.28 955.063 1407.06C952.104 1408.77 949.825 1411.26 948.227 1414.51C946.629 1417.71 945.8 1421.56 945.741 1426.06Z" fill="url(#paint1_linear_1_5)"/>
<defs>
<linearGradient id="paint0_linear_1_5" x1="725.615" y1="967.335" x2="725.615" y2="1399.41" gradientUnits="userSpaceOnUse">
<stop stop-color="#DFDFDF"/>
<stop offset="1" stop-color="#DEDDE9"/>
</linearGradient>
<linearGradient id="paint1_linear_1_5" x1="725.615" y1="1260.76" x2="725.615" y2="1692.84" gradientUnits="userSpaceOnUse">
<stop stop-color="#4FAAFF"/>
<stop offset="1" stop-color="#E5E4ED"/>
</linearGradient>
</defs>
</svg>
