<svg width="1452" height="2581" viewBox="0 0 1452 2581" fill="none" xmlns="http://www.w3.org/2000/svg">
<rect x="20.7687" y="20.5491" width="1411" height="2539.56" fill="#FAFAFA" stroke="#685C68" stroke-width="40"/>
<path d="M1 1290L811 1155L698 2580H1V1290Z" fill="#86AFE0"/>
<path d="M1452 1528L811 1155L698 2580H1452V1528Z" fill="#D9D9D9"/>
<path d="M397 1331.5L517.5 1290H659.5L697.5 1407.5L659.5 1503.5L533.5 1541L367 1486.5L397 1331.5Z" fill="#685C68"/>
<path d="M1029.42 2275.23L1112.3 2227.98L1253.24 2245.28L1389.18 2418.14L1263.34 2499.41L978.011 2447.75L990.99 2342.05L1029.42 2275.23Z" fill="#685C68"/>
<path d="M619.709 747.4H598.109V680.8H536.709V747.4H514.909V598.2H536.709V660.4H598.109V598.2H619.709V747.4ZM700.822 654.6C691.755 654.6 684.555 658.2 679.222 665.4C674.155 672.467 671.622 681.6 671.622 692.8C671.622 704 674.155 713.133 679.222 720.2C684.555 727.4 691.755 731 700.822 731C709.889 731 717.022 727.4 722.222 720.2C727.422 713.267 730.022 704.133 730.022 692.8C730.022 681.6 727.422 672.467 722.222 665.4C717.022 658.2 709.889 654.6 700.822 654.6ZM700.822 635.8C717.355 635.8 730.222 641.733 739.422 653.6C747.689 664.133 751.822 677.2 751.822 692.8C751.822 708.4 747.689 721.467 739.422 732C730.222 743.867 717.355 749.8 700.822 749.8C684.155 749.8 671.222 743.867 662.022 732C653.889 721.733 649.822 708.667 649.822 692.8C649.822 676.933 653.889 663.867 662.022 653.6C671.222 641.733 684.155 635.8 700.822 635.8ZM797.911 746.6H776.111V587.4H797.911V746.6ZM870.111 653C861.044 653 854.311 657.067 849.911 665.2C846.178 671.867 844.311 680.933 844.311 692.4C844.311 717.867 852.911 730.6 870.111 730.6C878.378 730.6 884.911 726.467 889.711 718.2C893.578 711.133 895.511 702.333 895.511 691.8C895.511 681.267 893.578 672.467 889.711 665.4C885.044 657.133 878.511 653 870.111 653ZM915.711 747.6H895.511V737.6C888.844 745.867 879.711 750 868.111 750C853.578 750 842.311 744.6 834.311 733.8C826.844 723.267 823.111 709.467 823.111 692.4C823.111 674.8 826.578 660.933 833.511 650.8C841.111 639.467 852.644 633.8 868.111 633.8C878.778 633.8 887.911 638.2 895.511 647V587H915.711V747.6Z" fill="#4372EC"/>
<path d="M418.043 401.4H377.443V529.6H355.643V401.4H315.243V381.6H418.043V401.4ZM524.827 529.6H503.427V465.6C503.427 455.867 502.294 448.867 500.027 444.6C496.961 439.533 491.627 437 484.027 437C475.627 437 469.161 440.467 464.627 447.4C460.761 453.667 458.827 461.533 458.827 471V529.6H437.427V370.4H458.827V430.6C461.494 426.2 465.361 422.867 470.427 420.6C475.361 418.2 480.627 417 486.227 417C500.227 417 510.294 421.267 516.427 429.8C522.027 437.4 524.827 449.067 524.827 464.8V529.6ZM616.116 530.6V520C609.583 528.533 600.183 532.8 587.916 532.8C574.583 532.8 564.716 529.067 558.316 521.6C553.783 516.133 551.516 509.467 551.516 501.6C551.516 474.4 571.516 460.8 611.516 460.8H614.516V457.2C614.516 444.133 608.45 437.6 596.316 437.6C585.383 437.6 574.583 440.467 563.916 446.2V426.6C574.05 421.4 585.25 418.8 597.516 418.8C610.316 418.8 619.65 421.8 625.516 427.8C631.783 434.333 634.916 444.467 634.916 458.2V504.8C634.916 517.067 635.316 525.667 636.116 530.6H616.116ZM614.516 479.4H610.316C599.916 479.4 591.916 480.333 586.316 482.2C577.383 485.133 572.916 490.933 572.916 499.6C572.916 509.2 578.45 514 589.516 514C606.183 514 614.516 503.867 614.516 483.6V479.4ZM719.701 529.6C714.634 531.733 708.901 532.8 702.501 532.8C689.834 532.8 681.634 529.4 677.901 522.6C675.101 518.067 673.701 509.333 673.701 496.4V439.8H656.501V420H673.701V396.2L695.301 389.2V420H716.501V439.8H695.301V502C695.301 509.733 698.834 513.6 705.901 513.6C710.567 513.6 714.634 512.733 718.101 511L719.701 529.6Z" fill="black"/>
<path d="M252.6 313.4H231V246.8H169.6V313.4H147.8V164.2H169.6V226.4H231V164.2H252.6V313.4ZM333.713 220.6C324.646 220.6 317.446 224.2 312.113 231.4C307.046 238.467 304.513 247.6 304.513 258.8C304.513 270 307.046 279.133 312.113 286.2C317.446 293.4 324.646 297 333.713 297C342.779 297 349.913 293.4 355.113 286.2C360.313 279.267 362.913 270.133 362.913 258.8C362.913 247.6 360.313 238.467 355.113 231.4C349.913 224.2 342.779 220.6 333.713 220.6ZM333.713 201.8C350.246 201.8 363.113 207.733 372.312 219.6C380.579 230.133 384.713 243.2 384.713 258.8C384.713 274.4 380.579 287.467 372.312 298C363.113 309.867 350.246 315.8 333.713 315.8C317.046 315.8 304.113 309.867 294.913 298C286.779 287.733 282.713 274.667 282.713 258.8C282.713 242.933 286.779 229.867 294.913 219.6C304.113 207.733 317.046 201.8 333.713 201.8ZM430.802 312.6H409.002V153.4H430.802V312.6ZM503.002 219C493.935 219 487.202 223.067 482.802 231.2C479.068 237.867 477.202 246.933 477.202 258.4C477.202 283.867 485.802 296.6 503.002 296.6C511.268 296.6 517.802 292.467 522.602 284.2C526.468 277.133 528.402 268.333 528.402 257.8C528.402 247.267 526.468 238.467 522.602 231.4C517.935 223.133 511.402 219 503.002 219ZM548.602 313.6H528.402V303.6C521.735 311.867 512.602 316 501.002 316C486.468 316 475.202 310.6 467.202 299.8C459.735 289.267 456.002 275.467 456.002 258.4C456.002 240.8 459.468 226.933 466.402 216.8C474.002 205.467 485.535 199.8 501.002 199.8C511.668 199.8 520.802 204.2 528.402 213V153H548.602V313.6Z" fill="#4372EC"/>
<path d="M442.902 1511L477 1522.15L449.131 1602.15L417 1589.69L442.902 1511Z" fill="#4372EC"/>
</svg>
